<?xml version="1.0" standalone="no"?>
<!DOCTYPE svg PUBLIC "-//W3C//DTD SVG 20010904//EN"
 "http://www.w3.org/TR/2001/REC-SVG-20010904/DTD/svg10.dtd">
<svg version="1.0" xmlns="http://www.w3.org/2000/svg"
 width="512.000000pt" height="512.000000pt" viewBox="0 0 512.000000 512.000000"
 preserveAspectRatio="xMidYMid meet">

<g transform="translate(0.000000,512.000000) scale(0.100000,-0.100000)"
fill="#000000" stroke="none">
<path d="M3210 4819 c-118 -55 -92 -53 -590 -59 l-465 -5 -61 -28 c-77 -36
-145 -104 -181 -182 l-28 -60 0 -530 c0 -415 3 -544 14 -592 19 -86 28 -97 69
-82 37 13 36 7 18 72 -8 29 -17 69 -21 89 -6 37 -5 38 40 59 50 23 86 64 104
118 7 21 11 116 11 255 0 159 3 225 12 234 17 17 839 17 856 0 9 -9 12 -75 12
-234 0 -281 12 -319 111 -370 49 -24 50 -25 44 -62 -4 -20 -13 -60 -21 -89
-18 -65 -19 -59 18 -72 39 -14 45 -8 65 60 13 44 17 117 20 389 2 213 8 345
15 363 6 15 30 41 54 57 23 17 53 47 66 67 23 37 23 43 23 295 l0 258 -31 31
c-41 41 -93 47 -154 18z m99 -73 c9 -10 11 -79 9 -246 l-3 -232 -62 -56 c-92
-84 -93 -87 -93 -387 0 -140 -4 -255 -8 -255 -5 0 -21 14 -38 31 l-29 30 -5
249 -5 250 -33 32 -32 33 -450 0 -450 0 -32 -33 -33 -32 -5 -250 -5 -249 -29
-30 c-17 -17 -33 -31 -38 -31 -4 0 -8 195 -8 433 0 484 2 501 66 575 20 24 59
55 88 70 l51 27 465 5 c441 6 468 7 521 27 31 12 69 28 85 37 36 19 58 20 73
2z"/>
<path d="M820 4666 c-177 -50 -319 -194 -366 -371 -21 -76 -18 -211 6 -287 53
-172 203 -311 382 -353 114 -27 208 -17 326 31 l63 27 27 -25 c54 -51 99 -60
152 -33 43 22 60 53 60 107 0 41 -5 54 -34 85 l-33 37 27 60 c69 152 65 307
-11 457 -59 118 -180 220 -307 259 -74 23 -219 26 -292 6z m323 -103 c44 -21
88 -53 126 -90 143 -144 171 -353 71 -530 -17 -29 -30 -59 -30 -66 0 -7 18
-31 40 -52 54 -53 54 -105 -1 -105 -6 0 -32 21 -59 46 l-50 47 -73 -37 c-182
-93 -376 -65 -518 74 -87 85 -122 166 -127 292 -6 140 28 234 120 327 98 99
181 132 328 128 94 -2 112 -6 173 -34z"/>
<path d="M1135 4421 c-16 -10 -79 -69 -140 -130 -60 -61 -114 -111 -119 -111
-5 0 -33 23 -62 50 -43 41 -59 50 -89 50 -75 0 -125 -51 -125 -126 0 -34 10
-47 107 -145 116 -118 150 -138 206 -120 22 8 94 73 214 194 198 199 212 221
179 285 -36 69 -109 92 -171 53z m95 -81 c7 -13 7 -26 1 -37 -16 -30 -337
-343 -351 -343 -7 0 -55 42 -107 92 -76 75 -93 97 -91 118 2 18 10 26 28 28
19 2 39 -11 85 -58 34 -34 68 -60 80 -60 13 0 71 51 160 140 144 144 173 162
195 120z"/>
<path d="M4010 4661 c-142 -46 -251 -135 -310 -252 -45 -88 -60 -149 -60 -249
0 -94 9 -137 47 -223 l26 -58 -34 -35 c-29 -30 -34 -42 -34 -84 0 -43 5 -54
33 -82 28 -28 39 -33 82 -33 42 0 54 5 84 34 38 37 36 37 133 -3 235 -99 534
20 646 255 58 122 70 226 42 347 -42 179 -181 329 -353 382 -83 26 -224 26
-302 1z m333 -98 c283 -133 343 -502 117 -717 -64 -61 -114 -90 -197 -111
-109 -29 -204 -16 -316 40 -76 39 -81 38 -136 -19 -36 -38 -59 -44 -79 -24
-21 21 -14 39 34 90 25 27 44 52 42 56 -2 4 -21 42 -43 86 -36 73 -40 86 -43
176 -6 142 28 235 120 329 98 99 181 132 328 128 94 -2 112 -6 173 -34z"/>
<path d="M4015 4474 c-149 -49 -178 -67 -195 -120 -14 -41 0 -91 33 -121 12
-12 86 -42 165 -67 l142 -46 139 45 c76 25 150 54 164 65 56 44 56 136 0 180
-19 15 -287 111 -305 110 -2 0 -66 -21 -143 -46z m283 -81 c117 -39 141 -57
123 -91 -10 -18 -218 -92 -261 -92 -13 0 -75 17 -138 37 -117 39 -142 57 -123
90 10 20 209 91 256 92 16 1 80 -16 143 -36z"/>
<path d="M3810 4155 c0 -21 33 -76 53 -89 38 -26 257 -96 297 -96 40 0 259 70
297 96 20 13 53 68 53 89 0 3 -17 5 -39 5 -26 0 -43 -6 -52 -19 -15 -20 -216
-91 -259 -91 -43 0 -244 71 -259 91 -9 13 -26 19 -52 19 -22 0 -39 -2 -39 -5z"/>
<path d="M3810 3995 c0 -17 30 -72 46 -86 11 -9 83 -38 161 -63 l143 -46 127
41 c179 58 198 70 218 137 6 20 3 22 -33 22 -27 0 -44 -6 -53 -19 -15 -20
-216 -91 -259 -91 -43 0 -244 71 -259 91 -9 13 -26 19 -52 19 -22 0 -39 -2
-39 -5z"/>
<path d="M1684 3988 c-160 -107 -163 -335 -5 -455 53 -41 66 -41 80 0 11 29
10 33 -11 47 -68 44 -108 111 -108 186 0 48 46 130 88 155 20 13 39 24 40 25
7 5 -19 74 -28 74 -4 0 -30 -15 -56 -32z"/>
<path d="M3359 3983 c-8 -26 -9 -38 -1 -41 31 -10 77 -51 94 -84 53 -102 21
-214 -80 -278 -21 -14 -22 -18 -11 -47 12 -37 24 -40 59 -16 49 32 82 69 108
118 22 41 26 63 27 125 0 82 -22 137 -74 193 -22 24 -89 67 -105 67 -2 0 -10
-17 -17 -37z"/>
<path d="M2185 3815 c-50 -49 -15 -135 55 -135 41 0 80 39 80 80 0 41 -39 80
-80 80 -19 0 -40 -9 -55 -25z"/>
<path d="M2520 3680 l0 -160 40 0 40 0 0 160 0 160 -40 0 -40 0 0 -160z"/>
<path d="M2825 3815 c-16 -15 -25 -36 -25 -55 0 -19 9 -40 25 -55 15 -16 36
-25 55 -25 19 0 40 9 55 25 16 15 25 36 25 55 0 19 -9 40 -25 55 -15 16 -36
25 -55 25 -19 0 -40 -9 -55 -25z"/>
<path d="M2280 3502 c0 -10 7 -42 16 -72 23 -76 100 -153 179 -176 135 -39
272 19 334 143 11 22 23 60 27 82 l7 41 -41 0 c-38 0 -40 -2 -47 -37 -9 -52
-46 -106 -92 -134 -54 -34 -152 -34 -206 0 -46 28 -83 82 -92 134 -7 35 -9 37
-46 37 -31 0 -39 -4 -39 -18z"/>
<path d="M1212 3469 c-47 -14 -109 -80 -122 -130 -7 -24 -10 -91 -8 -155 3
-113 3 -114 36 -146 l32 -33 290 0 290 0 32 33 33 32 0 138 c0 127 -2 140 -24
175 -13 21 -42 50 -64 65 -40 27 -41 27 -251 29 -116 1 -226 -3 -244 -8z m470
-107 c33 -32 33 -33 36 -143 4 -122 -2 -139 -49 -139 -29 0 -29 1 -29 60 l0
60 -40 0 -40 0 0 -60 0 -60 -40 0 -40 0 0 60 0 60 -40 0 -40 0 0 -60 0 -60
-40 0 -40 0 0 60 0 60 -40 0 -40 0 0 -60 c0 -59 0 -60 -29 -60 -47 0 -53 17
-49 139 3 100 5 112 28 136 14 15 34 31 45 36 11 4 109 7 217 6 l198 -2 32
-33z"/>
<path d="M3452 3469 c-47 -14 -109 -80 -122 -130 -7 -24 -10 -91 -8 -155 3
-113 3 -114 36 -146 l32 -33 290 0 290 0 32 33 33 32 0 138 c0 127 -2 140 -24
175 -13 21 -42 50 -64 65 -40 27 -41 27 -251 29 -116 1 -226 -3 -244 -8z m470
-107 c33 -32 33 -33 36 -143 4 -122 -2 -139 -49 -139 -29 0 -29 1 -29 60 l0
60 -40 0 -40 0 0 -60 0 -60 -40 0 -40 0 0 60 0 60 -40 0 -40 0 0 -60 0 -60
-40 0 -40 0 0 60 0 60 -40 0 -40 0 0 -60 c0 -59 0 -60 -29 -60 -47 0 -53 17
-49 139 3 100 5 112 28 136 14 15 34 31 45 36 11 4 109 7 217 6 l198 -2 32
-33z"/>
<path d="M732 3149 c-44 -13 -108 -79 -121 -126 -7 -26 -11 -369 -11 -1050 l0
-1013 40 0 40 0 2 1025 3 1025 33 32 c32 32 34 33 137 36 l105 4 0 39 0 39
-97 -1 c-54 0 -113 -5 -131 -10z"/>
<path d="M1920 3120 l0 -40 640 0 640 0 0 40 0 40 -640 0 -640 0 0 -40z"/>
<path d="M4160 3122 l0 -40 105 -4 c103 -3 105 -4 137 -36 l33 -32 3 -1025 2
-1025 40 0 40 0 -2 1033 -3 1033 -27 41 c-47 71 -86 87 -215 92 l-113 3 0 -40z"/>
<path d="M835 2911 c-11 -5 -31 -21 -45 -36 l-25 -27 -3 -944 -2 -944 40 0 40
0 0 928 c0 708 3 931 12 940 17 17 3399 17 3416 0 9 -9 12 -232 12 -940 l0
-928 40 0 40 0 -2 945 -3 945 -33 32 -32 33 -1718 2 c-944 1 -1726 -2 -1737
-6z"/>
<path d="M1715 2711 c-11 -5 -175 -165 -365 -355 l-345 -346 0 -50 0 -50 353
-352 352 -353 50 0 c43 0 54 5 82 33 28 28 33 39 33 82 l0 50 -295 295 -295
295 295 295 295 295 0 50 c0 42 -5 54 -31 81 -33 33 -92 46 -129 30z m73 -83
c7 -7 12 -19 12 -27 0 -9 -137 -153 -305 -321 -168 -168 -305 -312 -305 -320
0 -8 137 -152 305 -320 168 -168 305 -312 305 -321 0 -19 -20 -39 -39 -39 -20
0 -681 660 -681 680 0 20 660 680 680 680 9 0 21 -5 28 -12z"/>
<path d="M3315 2711 c-45 -20 -70 -60 -70 -112 l0 -49 295 -295 295 -295 -295
-295 -295 -295 0 -50 c0 -43 5 -54 33 -82 28 -28 39 -33 82 -33 l50 0 352 353
353 352 0 50 0 50 -351 351 c-326 326 -353 351 -390 355 -21 2 -48 0 -59 -5z
m392 -403 c183 -183 333 -340 333 -348 0 -20 -660 -680 -680 -680 -20 0 -40
20 -40 39 0 9 137 153 305 321 168 168 305 312 305 320 0 8 -137 152 -305 320
-168 168 -305 312 -305 321 0 19 20 39 39 39 9 0 166 -150 348 -332z"/>
<path d="M1932 2109 c-48 -14 -109 -80 -123 -131 -23 -89 12 -182 88 -229 57
-36 154 -34 210 3 62 41 88 90 88 168 0 77 -26 127 -85 166 -43 29 -125 39
-178 23z m152 -108 c26 -27 31 -39 31 -81 0 -43 -5 -54 -33 -82 -28 -28 -39
-33 -82 -33 -43 0 -54 5 -82 33 -28 28 -33 39 -33 81 0 52 25 92 70 112 37 16
96 3 129 -30z"/>
<path d="M2492 2109 c-48 -14 -109 -80 -123 -131 -23 -89 12 -182 88 -229 57
-36 154 -34 210 3 62 41 88 90 88 168 0 77 -26 127 -85 166 -43 29 -125 39
-178 23z m152 -108 c26 -27 31 -39 31 -81 0 -43 -5 -54 -33 -82 -28 -28 -39
-33 -82 -33 -43 0 -54 5 -82 33 -28 28 -33 39 -33 81 0 52 25 92 70 112 37 16
96 3 129 -30z"/>
<path d="M3052 2109 c-48 -14 -109 -80 -123 -131 -23 -89 12 -182 88 -229 57
-36 154 -34 210 3 62 41 88 90 88 168 0 77 -26 127 -85 166 -43 29 -125 39
-178 23z m152 -108 c26 -27 31 -39 31 -81 0 -43 -5 -54 -33 -82 -28 -28 -39
-33 -82 -33 -43 0 -54 5 -82 33 -28 28 -33 39 -33 81 0 52 25 92 70 112 37 16
96 3 129 -30z"/>
<path d="M355 830 c-62 -25 -85 -92 -65 -192 33 -170 156 -298 327 -343 50
-13 303 -15 1940 -15 1356 0 1897 3 1935 11 172 37 307 176 339 351 15 83 7
127 -32 164 l-30 29 -2197 2 c-1208 1 -2206 -2 -2217 -7z m1688 -116 c3 -34
13 -55 36 -78 l31 -31 450 0 450 0 31 31 c23 23 33 44 36 78 l6 46 827 0 c933
0 857 7 847 -80 -14 -121 -98 -234 -212 -287 l-60 -28 -1925 0 -1925 0 -61 28
c-111 52 -197 167 -211 286 -10 88 -87 81 847 81 l827 0 6 -46z m957 18 c0
-15 -5 -33 -12 -40 -17 -17 -839 -17 -856 0 -7 7 -12 25 -12 40 l0 28 440 0
440 0 0 -28z"/>
</g>
</svg>
