<?xml version="1.0" standalone="no"?>
<!DOCTYPE svg PUBLIC "-//W3C//DTD SVG 20010904//EN"
 "http://www.w3.org/TR/2001/REC-SVG-20010904/DTD/svg10.dtd">
<svg version="1.0" xmlns="http://www.w3.org/2000/svg"
 width="512.000000pt" height="512.000000pt" viewBox="0 0 512.000000 512.000000"
 preserveAspectRatio="xMidYMid meet">

<g transform="translate(0.000000,512.000000) scale(0.100000,-0.100000)"
fill="#000000" stroke="none">
<path d="M145 4776 c-60 -28 -97 -66 -124 -126 -20 -45 -21 -56 -21 -1770 l0
-1725 24 -50 c28 -60 66 -97 126 -124 44 -20 60 -21 1188 -21 l1142 0 0 -240
0 -240 -635 0 -636 0 -24 -25 c-33 -32 -33 -78 0 -110 l24 -25 1351 0 1351 0
24 25 c33 32 33 78 0 110 l-24 25 -636 0 -635 0 0 240 0 240 1143 0 1142 0 50
24 c60 28 97 66 124 126 20 45 21 56 21 1770 0 1714 -1 1725 -21 1770 -27 60
-64 98 -124 126 l-50 24 -2365 0 -2365 0 -50 -24z m4790 -161 c25 -24 25 -24
25 -240 l0 -215 -2400 0 -2400 0 0 215 c0 216 0 216 25 240 l24 25 2351 0
2351 0 24 -25z m25 -2030 l0 -1416 -25 -24 -24 -25 -2351 0 -2351 0 -24 25
-25 24 0 1416 0 1415 2400 0 2400 0 0 -1415z"/>
<path d="M3945 4455 c-16 -15 -25 -36 -25 -55 0 -19 9 -40 25 -55 15 -16 36
-25 55 -25 19 0 40 9 55 25 16 15 25 36 25 55 0 19 -9 40 -25 55 -15 16 -36
25 -55 25 -19 0 -40 -9 -55 -25z"/>
<path d="M4265 4455 c-16 -15 -25 -36 -25 -55 0 -19 9 -40 25 -55 15 -16 36
-25 55 -25 19 0 40 9 55 25 16 15 25 36 25 55 0 19 -9 40 -25 55 -15 16 -36
25 -55 25 -19 0 -40 -9 -55 -25z"/>
<path d="M4585 4455 c-16 -15 -25 -36 -25 -55 0 -19 9 -40 25 -55 15 -16 36
-25 55 -25 19 0 40 9 55 25 16 15 25 36 25 55 0 19 -9 40 -25 55 -15 16 -36
25 -55 25 -19 0 -40 -9 -55 -25z"/>
<path d="M2265 3655 l-25 -24 0 -591 0 -591 25 -24 24 -25 1151 0 1151 0 24
25 25 24 0 591 0 591 -25 24 -24 25 -1151 0 -1151 0 -24 -25z m2215 -615 l0
-480 -1040 0 -1040 0 0 480 0 480 1040 0 1040 0 0 -480z"/>
<path d="M502 3647 l-22 -23 0 -588 0 -587 25 -24 24 -25 671 0 671 0 24 25
25 24 0 589 c0 578 0 589 -20 610 l-21 22 -678 0 -678 0 -21 -23z m1118 -130
c0 -8 -411 -362 -419 -362 -8 0 -118 94 -396 338 l-30 26 423 1 c232 0 422 -2
422 -3z m-742 -301 c105 -92 192 -171 192 -176 0 -5 -87 -84 -192 -176 -106
-92 -203 -176 -215 -187 l-23 -20 0 383 0 383 23 -20 c12 -11 109 -95 215
-187z m880 -365 l-3 -189 -210 183 c-115 100 -210 188 -210 195 0 7 95 95 210
196 l210 183 3 -189 c1 -105 1 -275 0 -379z m-342 -106 l206 -180 -211 -3
c-116 -1 -306 -1 -422 0 l-210 3 208 182 c114 100 211 181 215 180 4 -1 100
-83 214 -182z"/>
<path d="M505 2055 c-16 -15 -25 -36 -25 -55 0 -19 9 -40 25 -55 l24 -25 1031
0 1031 0 24 25 c33 32 33 78 0 110 l-24 25 -1031 0 -1031 0 -24 -25z"/>
<path d="M2985 2055 c-16 -15 -25 -36 -25 -55 0 -19 9 -40 25 -55 l24 -25 791
0 791 0 24 25 c16 15 25 36 25 55 0 19 -9 40 -25 55 l-24 25 -791 0 -791 0
-24 -25z"/>
<path d="M505 1575 c-16 -15 -25 -36 -25 -55 0 -19 9 -40 25 -55 l24 -25 711
0 711 0 24 25 c16 15 25 36 25 55 0 19 -9 40 -25 55 l-24 25 -711 0 -711 0
-24 -25z"/>
<path d="M2345 1575 c-16 -15 -25 -36 -25 -55 0 -19 9 -40 25 -55 l24 -25
1111 0 1111 0 24 25 c16 15 25 36 25 55 0 19 -9 40 -25 55 l-24 25 -1111 0
-1111 0 -24 -25z"/>
</g>
</svg>
