<?xml version="1.0" standalone="no"?>
<!DOCTYPE svg PUBLIC "-//W3C//DTD SVG 20010904//EN"
 "http://www.w3.org/TR/2001/REC-SVG-20010904/DTD/svg10.dtd">
<svg version="1.0" xmlns="http://www.w3.org/2000/svg"
 width="512.000000pt" height="512.000000pt" viewBox="0 0 512.000000 512.000000"
 preserveAspectRatio="xMidYMid meet">

<g transform="translate(0.000000,512.000000) scale(0.100000,-0.100000)"
fill="#000000" stroke="none">
<path d="M235 5107 c-66 -22 -98 -43 -146 -94 -59 -63 -84 -128 -84 -218 0
-92 25 -156 87 -221 68 -72 131 -98 233 -98 62 0 92 5 132 23 65 29 143 110
168 174 l18 47 512 0 512 0 33 -23 c28 -18 52 -60 137 -241 57 -120 103 -220
103 -222 0 -2 -263 -4 -583 -4 -581 0 -584 0 -603 -21 -18 -20 -19 -43 -19
-500 l0 -478 22 -23 c20 -19 36 -23 123 -26 l100 -4 0 -74 0 -74 -103 0 c-156
0 -142 45 -142 -471 l0 -428 22 -23 c20 -19 36 -23 123 -26 l100 -4 0 -74 0
-74 -103 0 c-156 0 -142 53 -142 -521 l0 -478 23 -23 23 -23 578 -5 578 -5
-102 -215 c-84 -178 -107 -219 -134 -237 l-34 -23 -512 0 -512 0 -18 47 c-25
64 -103 145 -168 174 -40 18 -70 23 -132 23 -62 0 -92 -5 -132 -23 -66 -29
-143 -110 -169 -176 -25 -67 -25 -173 0 -240 26 -66 103 -147 169 -176 73 -33
191 -33 264 0 65 29 143 110 168 174 l18 47 512 0 c581 0 581 0 659 73 48 44
74 92 221 410 l69 147 455 0 456 0 64 -138 c156 -331 180 -376 227 -419 78
-73 78 -73 659 -73 l512 0 18 -47 c25 -64 103 -145 168 -174 73 -33 191 -33
264 0 66 29 143 110 169 176 25 67 25 173 0 240 -26 66 -103 147 -169 176 -73
33 -191 33 -264 0 -65 -29 -143 -110 -168 -174 l-18 -47 -512 0 -512 0 -34 23
c-27 18 -50 59 -134 237 l-102 215 578 5 578 5 23 23 23 23 0 478 c0 574 14
521 -142 521 l-103 0 0 74 0 74 100 4 c87 3 103 7 123 26 l22 23 0 428 c0 516
14 471 -142 471 l-103 0 0 74 0 74 100 4 c87 3 103 7 123 26 l22 23 0 478 c0
457 -1 480 -19 500 -19 21 -22 21 -603 21 -320 0 -583 2 -583 4 0 2 46 102
103 222 85 181 109 223 137 241 l33 23 512 0 512 0 18 -47 c25 -64 103 -145
168 -174 73 -33 191 -33 264 0 66 29 143 110 169 176 25 67 25 173 0 240 -26
66 -103 147 -169 176 -73 33 -191 33 -264 0 -65 -29 -143 -110 -168 -174 l-18
-47 -512 0 c-570 0 -577 -1 -653 -66 -50 -42 -45 -33 -188 -334 l-112 -235
-452 0 -453 0 -111 235 c-143 300 -138 291 -188 334 -76 65 -83 66 -653 66
l-512 0 -18 47 c-25 65 -103 145 -168 173 -63 28 -166 35 -222 17z m190 -172
c68 -51 93 -147 56 -215 -46 -86 -138 -120 -223 -82 -141 62 -143 239 -3 316
46 25 124 16 170 -19z m4473 -2 c72 -59 90 -134 50 -213 -56 -111 -186 -132
-273 -45 -47 46 -64 102 -50 163 7 36 59 96 100 117 46 24 129 14 173 -22z
m-668 -1228 l0 -375 -573 0 -574 0 -95 49 c-155 79 -232 96 -428 96 -196 0
-273 -18 -427 -96 l-94 -49 -575 0 -574 0 0 375 0 375 1670 0 1670 0 0 -375z
m-1484 -395 c351 -90 584 -388 584 -747 0 -124 -20 -221 -66 -321 -129 -283
-393 -452 -704 -452 -367 0 -677 247 -755 604 -25 113 -17 304 18 401 93 267
291 452 552 516 101 25 270 25 371 -1z m-929 -202 l-54 -73 -312 -3 -311 -2 0
75 0 75 365 0 365 0 -53 -72z m2163 -3 l0 -75 -311 2 -312 3 -54 73 -53 72
365 0 365 0 0 -75z m-2295 -242 c-51 -135 -61 -369 -20 -529 14 -54 25 -100
25 -101 0 -2 -180 -3 -400 -3 l-400 0 0 325 0 325 401 0 c378 0 401 -1 394
-17z m2545 -308 l0 -325 -400 0 c-220 0 -400 2 -400 5 0 3 10 40 23 82 19 67
22 101 22 243 0 156 -9 221 -41 305 -5 13 39 15 395 15 l401 0 0 -325z m-2411
-545 c28 -39 51 -73 51 -75 0 -3 -164 -5 -365 -5 l-365 0 0 75 0 75 314 0 314
0 51 -70z m2161 -5 l0 -75 -365 0 c-201 0 -365 2 -365 5 0 2 23 36 51 75 l51
70 314 0 314 0 0 -75z m-1837 -269 c145 -74 224 -91 417 -91 193 0 270 17 418
91 l87 44 583 0 582 0 0 -375 0 -375 -1670 0 -1670 0 0 375 0 375 584 0 583 0
86 -44z m-1718 -1271 c68 -51 93 -147 56 -215 -63 -118 -216 -131 -297 -24
-25 32 -29 47 -29 99 0 52 4 67 28 98 62 81 167 100 242 42z m4470 0 c68 -51
93 -147 56 -215 -63 -118 -216 -131 -297 -24 -25 32 -29 47 -29 99 0 52 4 67
28 98 62 81 167 100 242 42z"/>
<path d="M1157 3762 c-24 -27 -22 -85 4 -108 18 -16 37 -19 124 -19 121 0 145
12 145 75 0 61 -19 70 -147 70 -94 0 -112 -3 -126 -18z"/>
<path d="M1557 3762 c-24 -27 -22 -85 4 -108 18 -16 37 -19 124 -19 121 0 145
12 145 75 0 61 -19 70 -147 70 -94 0 -112 -3 -126 -18z"/>
<path d="M2105 3760 c-25 -28 -23 -76 4 -103 l22 -22 903 0 c875 0 905 1 925
19 27 25 29 86 3 109 -17 16 -96 17 -929 17 -899 0 -910 0 -928 -20z"/>
<path d="M2596 2938 c-22 -20 -37 -68 -106 -348 -45 -179 -82 -338 -82 -354
-1 -20 7 -37 26 -53 34 -29 58 -29 90 0 22 19 37 67 106 347 45 179 82 338 82
354 1 20 -7 37 -26 53 -34 29 -58 29 -90 1z"/>
<path d="M2125 2714 c-130 -111 -135 -117 -135 -154 0 -36 6 -43 102 -126 186
-162 196 -167 243 -119 50 49 32 81 -109 203 l-49 42 44 37 c141 118 164 159
114 208 -43 43 -63 35 -210 -91z"/>
<path d="M2785 2805 c-47 -46 -36 -75 63 -161 48 -42 87 -80 87 -84 0 -5 -37
-40 -82 -80 -48 -41 -86 -82 -89 -96 -14 -55 41 -108 91 -88 13 5 80 57 149
117 122 103 126 109 126 146 0 39 -4 43 -135 155 -147 126 -167 134 -210 91z"/>
<path d="M1157 1462 c-24 -27 -22 -85 4 -108 18 -16 37 -19 124 -19 121 0 145
12 145 75 0 61 -19 70 -147 70 -94 0 -112 -3 -126 -18z"/>
<path d="M1557 1462 c-24 -27 -22 -85 4 -108 18 -16 37 -19 124 -19 121 0 145
12 145 75 0 61 -19 70 -147 70 -94 0 -112 -3 -126 -18z"/>
<path d="M2105 1460 c-25 -28 -23 -76 4 -103 l22 -22 903 0 c875 0 905 1 925
19 27 25 29 86 3 109 -17 16 -96 17 -929 17 -899 0 -910 0 -928 -20z"/>
</g>
</svg>
