<svg xmlns="http://www.w3.org/2000/svg" width="128" height="128" viewBox="0 0 128 128">
  <title>Personal Website</title>
  <path d="M114,15.25H14A9.761,9.761,0,0,0,4.25,25v77A10.762,10.762,0,0,0,15,112.75h98A10.762,10.762,0,0,0,123.75,102V25A9.761,9.761,0,0,0,114,15.25ZM120.25,25V36.683H52.888L61.37,18.75H114A6.257,6.257,0,0,1,120.25,25ZM14,18.75H57.5L49.016,36.683H7.75V25A6.257,6.257,0,0,1,14,18.75Zm99,90.5H15A7.258,7.258,0,0,1,7.75,102V40.183h112.5V102A7.258,7.258,0,0,1,113,109.25Z"/>
  <path d="M21.57,33.467a5.75,5.75,0,1,0-5.75-5.75A5.756,5.756,0,0,0,21.57,33.467Zm0-8a2.25,2.25,0,1,1-2.25,2.25A2.253,2.253,0,0,1,21.57,25.467Z"/>
  <path d="M37.626,33.467a5.75,5.75,0,1,0-5.75-5.75A5.756,5.756,0,0,0,37.626,33.467Zm0-8a2.25,2.25,0,1,1-2.25,2.25A2.253,2.253,0,0,1,37.626,25.467Z"/>
  <path d="M67.522,29.467h44.745a1.75,1.75,0,0,0,0-3.5H67.522a1.75,1.75,0,0,0,0,3.5Z"/>
  <path d="M110.067,50.967H64a1.75,1.75,0,0,0-1.75,1.75v11A1.75,1.75,0,0,0,64,65.467h46.067a1.749,1.749,0,0,0,1.75-1.75v-11A1.749,1.749,0,0,0,110.067,50.967Zm-1.75,11H65.75v-7.5h42.567Z"/>
  <path d="M110.067,72.967H64a1.75,1.75,0,1,0,0,3.5h46.067a1.75,1.75,0,0,0,0-3.5Z"/>
  <path d="M110.067,83.967H64a1.75,1.75,0,1,0,0,3.5h46.067a1.75,1.75,0,0,0,0-3.5Z"/>
  <path d="M110.067,94.967H64a1.75,1.75,0,1,0,0,3.5h46.067a1.75,1.75,0,0,0,0-3.5Z"/>
  <path d="M34.9,75.209a8.478,8.478,0,1,0-8.477-8.478A8.487,8.487,0,0,0,34.9,75.209Zm0-13.455a4.978,4.978,0,1,1-4.977,4.977A4.982,4.982,0,0,1,34.9,61.754Z"/>
  <path d="M53.615,87.29V52.717a1.749,1.749,0,0,0-1.75-1.75H17.933a1.749,1.749,0,0,0-1.75,1.75v44a1.749,1.749,0,0,0,1.75,1.75H51.865a1.749,1.749,0,0,0,1.75-1.75V87.349A.581.581,0,0,0,53.615,87.29Zm-3.5-32.823v29.52A29.2,29.2,0,0,0,34.9,79.94a29.2,29.2,0,0,0-15.217,4.048V54.467Zm-30.432,40.5V88.256c3.8-3.058,9.283-4.816,15.217-4.816S46.314,85.2,50.115,88.254v6.713Z"/>
</svg>
